<svg xmlns="http://www.w3.org/2000/svg" viewBox="0 0 300.65 48.02"><defs><style>.cls-1{fill:#009fe3;}.cls-2{fill:#3c3c3b;}</style></defs><g id="Слой_2" data-name="Слой 2"><g id="Слой_1-2" data-name="Слой 1"><path class="cls-1" d="M46.09,13.37V61.06h-6.9V30l-9.38,9.39-2.26,2.26-2.63,2.62L10.33,29.69h0L3.43,22.8V13l21.5,21.49ZM3.43,27.67l6.9,6.9V61.06H3.43Z" transform="translate(-3.43 -13.04)"/><path class="cls-1" d="M53,61.06V13.13h6.9V61.06Zm0-47.93V61.06h6.9V13.13Zm6.67.22H53.19V60.83h6.44Z" transform="translate(-3.43 -13.04)"/><path class="cls-1" d="M66.72,20.13v-6.9h42.67v6.9ZM84.23,61.06V23.58h6.9V61.06Z" transform="translate(-3.43 -13.04)"/><path class="cls-2" d="M152.79,40.58A13.69,13.69,0,0,1,140.9,61.06H126a13.72,13.72,0,0,1-13.71-13.34h6.91a6.83,6.83,0,0,0,6.8,6.44h14.9a6.79,6.79,0,0,0,0-13.58H126a13.66,13.66,0,0,1-9.82-4.15,13.86,13.86,0,0,1-2.07-2.75A13.69,13.69,0,0,1,126,13.2h15.26a13.71,13.71,0,0,1,11.54,6.9h0a13.59,13.59,0,0,1,1.8,6.43h-6.91a6.82,6.82,0,0,0-6.55-6.43H126a6.79,6.79,0,0,0-.68,13.55c.24,0,.47,0,.7,0,.4,0,.8,0,1.19,0H140.9A13.69,13.69,0,0,1,152.79,40.58Z" transform="translate(-3.43 -13.04)"/><path class="cls-2" d="M181.45,13.18a23.94,23.94,0,1,1-23.94,23.94A23.94,23.94,0,0,1,181.45,13.18Zm-17,23.94a17,17,0,1,0,17-17A17.06,17.06,0,0,0,164.41,37.12Z" transform="translate(-3.43 -13.04)"/><path class="cls-2" d="M212.23,20.12v-6.9h42.3v6.9ZM219.13,32h30.76v6.9H219.13v22.2h-6.9V23.57h6.9Z" transform="translate(-3.43 -13.04)"/><path class="cls-2" d="M261.4,20.13v-6.9h42.67v6.9Zm17.52,40.93V23.58h6.9V61.06Z" transform="translate(-3.43 -13.04)"/></g></g></svg>